<svg
   id="svg1"
   width="1079.8395"
   height="231.79353"
   viewBox="0 0 1079.8395 231.79354"
   xmlns="http://www.w3.org/2000/svg">
  <g
     id="g1"
     transform="translate(-0.02594638,-0.2862319)">
    <path
       style="fill:#000000"
       d="m 691.04251,231.8421 c -7.2916,-1.53055 -8.29689,-7.12086 -3.21567,-17.88209 1.55818,-3.3 3.66661,-7.89 4.68539,-10.2 1.01878,-2.31 2.82258,-6.38623 4.00844,-9.05828 2.15611,-4.85827 2.15611,-4.85827 -1.24853,-12.72 -1.87255,-4.32395 -3.60411,-8.36677 -3.84792,-8.98405 -0.2438,-0.61728 -2.48757,-5.90928 -4.98615,-11.76 -5.43475,-12.72611 -8.63068,-20.275 -10.56041,-24.94405 -1.42367,-3.44462 -4.2969,-9.99254 -6.52049,-14.85984 -4.13237,-9.04547 2.20757,-17.35489 10.38504,-13.61112 3.99385,1.82845 8.5363,11.29639 25.90636,53.99734 2.738,6.73085 2.53451,6.4753 3.4401,4.32 0.6411,-1.52582 1.66376,-3.7495 6.09819,-13.26001 1.01553,-2.178 2.61442,-5.688 3.55309,-7.8 14.88557,-33.49226 14.5084,-32.78536 18.54006,-34.74822 9.35169,-4.55299 15.72613,4.96681 10.67092,15.93632 -1.8584,4.03264 -7.79092,17.43033 -7.79092,17.59462 0,0.0618 -1.674,3.79899 -3.72,8.30497 -2.046,4.50598 -3.72,8.23686 -3.72,8.29084 0,0.054 -1.4708,3.20389 -3.26845,6.99981 -1.79764,3.79591 -4.59475,9.81767 -6.2158,13.38167 -1.62105,3.564 -4.42935,9.558 -6.24067,13.32 -1.81133,3.762 -4.52725,9.432 -6.03538,12.6 -10.88626,22.86785 -13.68358,26.39057 -19.9172,25.08209 z M 50.783198,198.44669 C 21.593043,194.7011 2.4992665,166.33663 0.23796943,123.36 -2.175732,77.486888 16.023955,42.040823 54.583934,17.514745 74.869584,4.612055 108.13287,-1.165995 130.44,4.33805 c 26.72286,6.593579 48.34011,27.525681 52.77463,51.101952 2.86156,15.21361 3.62594,42.428088 2.06508,73.523578 -2.28837,45.58888 -1.16857,51.48791 8.86903,46.72177 15.74183,-7.47466 23.07013,10.38788 7.62964,18.59704 -17.22729,9.15914 -33.27731,-0.1511 -37.03949,-21.48573 -0.83657,-4.74401 -0.71248,-25.20828 0.25757,-42.47666 0.79637,-14.17678 0.91479,-19.30629 0.7618,-33 C 165.30339,56.605858 161.77939,45.145946 145.89403,32.72242 133.21957,22.810049 119.38033,19.557692 101.64,22.322291 89.257554,24.251934 87.328977,24.77361 80.026382,28.16873 c -5.6256,2.615453 -12.865819,6.72806 -15.504488,8.806898 -0.482958,0.380492 -1.778958,1.210945 -2.88,1.84545 C 44.965683,48.431204 29.434969,70.561991 24.126045,92.28 c -2.017754,8.25433 -2.11562,9.28294 -0.92624,9.73514 0.660874,0.25126 0.693975,0.24436 8.10171,-1.68926 2.629832,-0.68646 6.193832,-1.55798 7.92,-1.93671 C 40.947682,98.01043 44.088,97.32211 46.2,96.85956 69.780246,91.69528 76.680001,93.07624 76.680001,102.96 c 0,7.10173 -2.078508,8.45983 -17.28,11.29081 -2.904,0.54081 -6.306001,1.23711 -7.560001,1.54732 -1.254,0.31022 -3.738,0.85147 -5.52,1.20278 -5.013706,0.98843 -9.196998,1.93894 -12.48,2.83565 -1.65,0.45068 -4.62,1.10823 -6.6,1.46123 -6.558626,1.16929 -6.33668,0.93946 -5.764284,5.96903 3.868645,33.99325 16.039573,50.87704 37.946017,52.63959 11.772223,0.94716 30.391897,-7.19054 42.382837,-18.52336 6.16787,-5.82935 13.78156,-5.62304 17.35245,0.47021 3.98276,6.79607 -1.49127,15.16103 -15.39618,23.52719 -1.29846,0.78125 -3.49151,2.12277 -4.87343,2.98117 -12.886679,8.00467 -32.413424,12.09847 -48.104212,10.08507 z M 445.1558,197.50083 c -15.06962,-1.59606 -25.75771,-13.71251 -28.66946,-32.50082 -0.54713,-3.53037 -0.62564,-20.67927 -0.13945,-30.45796 0.35448,-7.12967 1.08343,-6.27528 -5.2871,-6.19686 -10.93321,0.13458 -15.97487,-3.72663 -14.60109,-11.18238 1.10242,-5.98305 4.24378,-7.75622 14.54028,-8.20739 7.41312,-0.32482 6.23751,1.55211 6.7036,-10.70268 0.48759,-12.81982 0.71507,-14.33896 2.52029,-16.83099 4.00492,-5.52864 12.71112,-5.059927 15.93191,0.85772 1.35423,2.48816 1.38553,2.93177 1.03589,14.68053 -0.37554,12.61921 -1.05895,10.90197 4.2143,10.58947 8.17029,-0.48418 15.07278,-0.59978 16.63503,-0.2786 11.08891,2.27974 11.88326,16.84839 1.10845,20.32917 -0.86226,0.27855 -3.53381,0.41249 -12.02845,0.60308 -6.006,0.13475 -10.93329,0.26118 -10.94953,0.28094 -0.58959,0.71749 -0.81555,30.47163 -0.25636,33.7588 2.30896,13.5733 8.50917,18.01949 18.96419,13.59929 13.49755,-5.70654 21.75062,10.09526 9.1617,17.54151 -5.57858,3.29969 -12.45255,4.79837 -18.8842,4.11717 z m -164.04384,-0.41334 c -6.36845,-2.27391 -6.64116,-3.52796 -6.32537,-29.08748 0.12802,-10.36201 0.2986,-27.58801 0.37908,-38.28001 0.16017,-21.27838 0.1355,-20.92061 1.60126,-23.22373 4.61577,-7.25265 15.08248,-4.62357 16.49676,4.14373 1.20914,7.49558 0.49674,75.72242 -0.83688,80.14865 -1.50123,4.98252 -6.7766,7.91925 -11.31485,6.29884 z m 68.32804,0.29276 c -34.20774,-3.95472 -52.32212,-37.41824 -35.9412,-66.39582 20.35276,-36.00371 67.49524,-32.20399 80.24912,6.46814 10.23058,31.02101 -13.75343,63.46005 -44.30792,59.92768 z m 6.86857,-17.5081 c 9.37435,-1.61786 16.59133,-7.18344 20.03956,-15.4541 11.92744,-28.60823 -20.64053,-54.44106 -41.43307,-32.86461 -9.00367,9.34314 -12.36401,20.20738 -9.15738,29.60657 4.03604,11.8303 18.63067,20.76938 30.55089,18.71214 z m -120.23261,16.92499 c -7.84703,-1.98966 -13.74726,-8.47391 -15.71151,-17.26665 -0.67709,-3.03094 -0.36024,-19.45827 0.56032,-29.05049 0.13918,-1.45017 1.12122,-14.82553 1.60353,-21.84 1.16226,-16.90329 -0.25483,-47.73658 -2.70012,-58.749434 -1.60906,-7.246767 0.0368,-11.503779 5.03468,-13.021825 9.00414,-2.734923 13.19606,5.452465 15.24282,29.771259 1.45698,17.31128 1.29382,31.19993 -0.6978,59.4 -2.3407,33.14289 -2.2294,34.08434 3.83044,32.39993 7.28724,-2.02557 12.72177,1.35778 12.72163,7.92008 -1.5e-4,7.50118 -10.24813,12.88036 -19.88399,10.43713 z M 611.9062,196.2047 c -27.28907,-3.91582 -44.39493,-33.36824 -35.4137,-60.97436 12.9802,-39.89792 69.43831,-39.89112 80.26475,0.01 9.26081,34.13068 -13.76259,65.4257 -44.85105,60.9647 z m 10.0952,-17.40905 c 8.10281,-1.01601 16.98299,-10.17154 19.03968,-19.63006 2.35558,-10.83306 0.24031,-22.43693 -5.0851,-27.89575 -20.44414,-20.95625 -51.98238,-0.20091 -42.89889,28.23179 4.45891,13.95707 15.07426,21.03317 28.94431,19.29402 z m 178.63861,17.38981 c -6.2789,-0.97137 -11.9413,-3.21365 -18.34509,-7.26455 -31.84501,-20.14448 -30.34813,-61.54973 2.79963,-77.44106 27.77086,-13.31359 66.64233,21.31045 46.62546,41.53075 -6.64736,6.71491 -11.31229,7.18509 -52.02387,5.24352 -3.54387,-0.16901 -3.54387,-0.16901 -2.90021,1.24844 9.58496,21.10791 39.10981,25.94384 59.46515,9.73991 20.1971,-16.07797 33.36005,-40.59655 39.12973,-72.8868 0.47129,-2.63762 1.28821,-7.17167 1.81536,-10.07567 0.52716,-2.904 1.92377,-11.057998 3.10359,-18.119998 4.39654,-26.316364 6.54039,-32.622253 15.25635,-44.874829 17.58256,-24.716918 55.20128,-30.477497 81.98425,-12.554304 15.7511,10.540648 21.61097,20.412289 21.98077,37.029133 0.48357,21.727617 -8.48409,39.394368 -29.76017,58.629318 -5.33539,4.82353 -5.35798,4.51718 0.42905,5.81705 13.66051,3.06838 18.83834,11.69378 18.84096,31.38593 0.003,21.17795 8.33949,31.02766 27.98313,33.06193 6.1407,0.63592 21.3026,-1.94654 27.8159,-4.73776 8.3937,-3.59704 15.8964,-7.98515 21.2385,-12.42174 4.1875,-3.47774 11.4938,-2.12398 13.2038,2.4465 2.6812,7.16602 -3.7995,14.26675 -21.1853,23.2123 -40.0406,20.60219 -80.44815,9.08768 -87.56884,-24.95352 -0.51756,-2.47428 -0.55568,-3.25667 -0.60722,-12.46324 -0.10438,-18.64824 -0.29949,-18.80983 -22.88093,-18.94978 -10.90171,-0.0676 -12.91251,-1.41094 -12.67687,-8.46918 0.12797,-3.83313 -0.3077,-3.23895 9.69451,-13.22179 9.17731,-9.15953 10.09726,-10.21642 17.80561,-20.45602 10.08128,-13.391733 15.06524,-24.247686 16.25766,-35.41208 0.86882,-8.134507 -6.41742,-21.159887 -15.04632,-26.897834 -5.66834,-3.76927 -11.58606,-5.285083 -19.75429,-5.060023 -24.52642,0.675779 -37.40238,13.493063 -42.363,42.169939 -0.5366,3.102 -1.50564,8.448 -2.15343,11.88 -0.64778,3.432 -1.45914,7.859998 -1.80301,9.839998 -3.11149,17.91606 -5.76445,29.52457 -8.88544,38.88 -12.25924,36.74805 -38.07185,66.28331 -63.47542,72.62974 -6.79152,1.69668 -18.1808,2.41597 -24,1.51572 z m 18.15678,-52.8444 c 8.84948,-4.67986 -8.04147,-20.0406 -20.79678,-18.91274 -7.377,0.6523 -15.65373,7.2906 -19.85321,15.92314 -1.38235,2.84157 -2.082,2.58404 7.97321,2.93489 23.46325,0.81868 31.20763,0.83165 32.67678,0.0547 z m -294.5725,52.50968 c -2.30243,-0.82867 -3.96579,-2.42092 -5.15096,-4.93073 -0.9584,-2.02959 -1.04133,-9.80844 -0.30829,-28.92 0.44309,-11.55207 0.37904,-31.28835 -0.12657,-39.00001 -0.74481,-11.35992 -0.15655,-14.17693 3.48351,-16.68136 7.05124,-4.85138 14.51802,1.28397 14.51802,11.92925 0,0.0342 0.88529,-0.65252 1.96731,-1.52608 13.36242,-10.78807 32.3527,-9.49536 32.3527,2.20234 0,6.09033 -5.04979,9.34767 -12.67187,8.17392 -6.94875,-1.07006 -14.404,3.18838 -19.99463,11.42095 -0.93351,1.37465 -0.93351,1.37465 -0.9376,6.96782 -0.002,3.07624 -0.10268,8.02316 -0.22318,10.99316 -0.12051,2.97001 -0.33714,9.66601 -0.4814,14.88001 -0.4569,16.51293 -0.54075,17.68944 -1.39011,19.50447 -2.08525,4.45609 -6.70769,6.54441 -11.03693,4.98626 z M 281.04,90.12577 c -10.3395,-3.33888 -8.28065,-18.245768 2.52,-18.245768 9.98858,0 13.04842,13.478408 4.01907,17.703748 -1.91177,0.89462 -4.72505,1.12781 -6.53907,0.54202 z m 747.72,-7.89123 c -9.8804,-3.246684 -10.9563,-19.365729 -1.6001,-23.971772 9.6076,-4.729785 19.5313,4.332169 17.1097,15.623831 -1.3477,6.284271 -9.0968,10.455171 -15.5096,8.347941 z"
       id="path1" />
  </g>
</svg>
